HIERARCHY
ROOT Hips
{
	OFFSET 0.000000 0.000000 0.000000
	CHANNELS 6 Xposition Yposition Zposition Zrotation Yrotation Xrotation 
	JOINT LowerBack
	{
		OFFSET 0.000000 0.000000 0.000000
		CHANNELS 3 Zrotation Yrotation Xrotation
		JOINT Spine
		{
			OFFSET 0.028270 2.035590 -0.193380
			CHANNELS 3 Zrotation Yrotation Xrotation
			JOINT Spine1
			{
				OFFSET 0.056720 2.048850 -0.042750
				CHANNELS 3 Zrotation Yrotation Xrotation
				JOINT Neck
				{
					OFFSET 0.000000 0.000000 0.000000
					CHANNELS 3 Zrotation Yrotation Xrotation
					JOINT Neck1
					{
						OFFSET -0.054170 1.746240 0.172020
						CHANNELS 3 Zrotation Yrotation Xrotation
						JOINT Head
						{
							OFFSET 0.104070 1.761360 -0.123970
							CHANNELS 3 Zrotation Yrotation Xrotation
							End Site
							{
								OFFSET 0.000000 0.000000 0.000000
							}
						}
					}
				}
				JOINT LeftShoulder
				{
					OFFSET 0.000000 0.000000 0.000000
					CHANNELS 3 Zrotation Yrotation Xrotation
					JOINT LeftArm
					{
						OFFSET 3.362410 1.200890 -0.311210
						CHANNELS 3 Zrotation Yrotation Xrotation
						JOINT LeftForeArm
						{
							OFFSET 4.983000 -0.000000 -0.000000
							CHANNELS 3 Zrotation Yrotation Xrotation
							JOINT LeftHand
							{
								OFFSET 3.483560 -0.000000 -0.000000
								CHANNELS 3 Zrotation Yrotation Xrotation
								JOINT LeftFingerBase
								{
									OFFSET 0.000000 0.000000 0.000000
									CHANNELS 3 Zrotation Yrotation Xrotation
									JOINT LeftHandIndex1
									{
										OFFSET 0.715260 -0.000000 -0.000000
										CHANNELS 3 Zrotation Yrotation Xrotation
										End Site
										{
											OFFSET 0.000000 0.000000 0.000000
										}
									}
								}
								JOINT LThumb
								{
									OFFSET 0.000000 0.000000 0.000000
									CHANNELS 3 Zrotation Yrotation Xrotation
									End Site
									{
										OFFSET 0.000000 0.000000 0.000000
									}
								}
							}
						}
					}
				}
				JOINT RightShoulder
				{
					OFFSET 0.000000 0.000000 0.000000
					CHANNELS 3 Zrotation Yrotation Xrotation
					JOINT RightArm
					{
						OFFSET -3.136600 1.374050 -0.404650
						CHANNELS 3 Zrotation Yrotation Xrotation
						JOINT RightForeArm
						{
							OFFSET -5.241900 -0.000000 -0.000000
							CHANNELS 3 Zrotation Yrotation Xrotation
							JOINT RightHand
							{
								OFFSET -3.444170 -0.000000 -0.000000
								CHANNELS 3 Zrotation Yrotation Xrotation
								JOINT RightFingerBase
								{
									OFFSET 0.000000 0.000000 0.000000
									CHANNELS 3 Zrotation Yrotation Xrotation
									JOINT RightHandIndex1
									{
										OFFSET -0.622530 -0.000000 -0.000000
										CHANNELS 3 Zrotation Yrotation Xrotation
										End Site
										{
											OFFSET 0.000000 0.000000 0.000000
										}
									}
								}
								JOINT RThumb
								{
									OFFSET 0.000000 0.000000 0.000000
									CHANNELS 3 Zrotation Yrotation Xrotation
									End Site
									{
										OFFSET 0.000000 0.000000 0.000000
									}
								}
							}
						}
					}
				}
			}
		}
	}
}
}
MOTION
Frames: 10
Frame Time: 0.008333
-4.215803 17.196765 -0.663223 -179.010557 85.390344 -149.217890 3.426034 -3.242622 10.217265 0.600765 -3.343133 -0.733015 -3.291803 -3.256449 0.201129 1.639064 -13.933154 -5.931612 -1.984573 -0.150884 0.080107 0.000000 0.000000 0.000000 7.480067 10.882226 -0.685688 -59.509272 -11.855756 11.071168 -177.740961 -61.288247 179.970738 3.075385 2.267878 0.052865 -0.187484 0.465712 0.000000 0.000000 0.000000 0.000000 0.000000 0.000000 0.000000 -1.227644 -11.181073 -0.378333 69.028763 -36.627232 19.514451 -179.933287 89.154751 179.953248 -18.455783 1.036598 -0.197603 0.264528 -0.172523 -0.000000 0.000000 0.000000 0.000000 0.000000 0.000000 0.000000 
-4.001264 17.269407 -0.655871 -178.522614 85.127342 -148.489250 3.680548 -3.291349 10.045948 0.670707 -3.408347 -0.773427 -3.253359 -3.322987 0.235526 1.673936 -14.244794 -6.063095 -1.989037 -0.149866 0.046980 0.000000 0.000000 0.000000 7.928067 10.988811 -0.727317 -59.906211 -10.555068 11.523934 -177.745919 -60.688795 179.974483 2.746447 2.006182 0.040595 -0.170602 0.470467 0.000000 0.000000 0.000000 0.000000 0.000000 0.000000 0.000000 -1.175151 -11.453067 -0.436622 69.134421 -37.020592 19.181327 -179.936050 88.563829 179.953500 -18.271065 1.628169 -0.293674 0.265103 -0.182400 -0.000000 0.000000 0.000000 0.000000 0.000000 0.000000 0.000000 
-3.787890 17.331958 -0.647358 -178.714727 84.840741 -148.472398 3.903371 -3.350268 9.915196 0.732321 -3.481879 -0.804690 -3.227137 -3.396186 0.268657 1.721393 -14.535243 -6.207635 -1.990148 -0.148324 0.009310 0.000000 0.000000 0.000000 8.326616 11.079854 -0.752888 -60.255835 -9.231581 12.016315 -177.756436 -60.133180 179.978262 2.402960 1.754886 0.030014 -0.152689 0.474511 0.000000 0.000000 0.000000 0.000000 0.000000 0.000000 0.000000 -1.125802 -11.693600 -0.476838 69.392387 -37.334318 18.682030 -179.939316 88.006864 179.953639 -18.045119 2.281669 -0.397150 0.264481 -0.194077 -0.000000 0.000000 0.000000 0.000000 0.000000 0.000000 0.000000 
-3.576258 17.383499 -0.638243 -179.338663 84.542617 -148.928089 4.103394 -3.417766 9.830827 0.787993 -3.562166 -0.826864 -3.208802 -3.474804 0.296368 1.769118 -14.799186 -6.360370 -1.985366 -0.146139 -0.031475 0.000000 0.000000 0.000000 8.667471 11.135173 -0.763811 -60.553312 -7.856136 12.518937 -177.774647 -59.601051 179.981884 2.064599 1.517406 0.021322 -0.134168 0.477760 0.000000 0.000000 0.000000 0.000000 0.000000 0.000000 0.000000 -1.107562 -11.895626 -0.493688 69.799984 -37.555609 18.043372 -179.942957 87.509240 179.953647 -17.809486 2.955499 -0.501032 0.263134 -0.206718 -0.000000 0.000000 0.000000 0.000000 0.000000 0.000000 0.000000 
-3.366612 17.423534 -0.628662 179.665797 84.237467 -149.801888 4.275906 -3.492599 9.797763 0.835833 -3.647860 -0.838826 -3.199064 -3.557469 0.317690 1.821343 -15.028395 -6.518931 -1.976284 -0.143453 -0.074730 0.000000 0.000000 0.000000 8.954223 11.161909 -0.760779 -60.804048 -6.444785 13.030903 -177.800610 -59.102442 179.985290 1.734744 1.304306 0.014520 -0.115264 0.479880 -0.000000 0.000000 0.000000 0.000000 0.000000 0.000000 0.000000 -1.106662 -12.052405 -0.488641 70.341336 -37.688600 17.270807 -179.946864 87.075258 179.953521 -17.577492 3.602365 -0.597919 0.261356 -0.219483 -0.000000 0.000000 0.000000 0.000000 0.000000 0.000000 0.000000 
-3.159174 17.451507 -0.618741 178.413501 83.929917 -150.979792 4.420319 -3.573005 9.814260 0.875512 -3.737128 -0.841435 -3.196621 -3.642516 0.330741 1.876995 -15.217340 -6.679018 -1.963514 -0.140378 -0.119148 0.000000 0.000000 0.000000 9.193385 11.157651 -0.746057 -61.017328 -4.994016 13.544426 -177.835522 -58.635702 179.988413 1.421848 1.116284 0.009510 -0.096217 0.480871 -0.000000 0.000000 0.000000 0.000000 0.000000 0.000000 0.000000 -1.121938 -12.159313 -0.462965 70.997308 -37.732414 16.388886 -179.950826 86.712883 179.953246 -17.372775 4.185492 -0.683309 0.259618 -0.231629 -0.000000 0.000000 0.000000 0.000000 0.000000 0.000000 0.000000 
-2.953791 17.467144 -0.608603 176.963152 83.617682 -152.403222 4.535777 -3.656279 9.878101 0.905507 -3.827160 -0.834220 -3.204953 -3.727043 0.337671 1.946723 -15.356805 -6.839276 -1.951298 -0.137246 -0.164338 0.000000 0.000000 0.000000 9.392522 11.150834 -0.719712 -61.206009 -3.549937 14.078954 -177.876447 -58.230474 179.991322 1.115781 0.974607 0.006091 -0.077156 0.480000 -0.000000 0.000000 0.000000 0.000000 0.000000 0.000000 0.000000 -1.119165 -12.210166 -0.423856 71.742361 -37.703855 15.388979 -179.954872 86.405182 179.952835 -17.188098 4.672568 -0.752505 0.257971 -0.242650 -0.000000 0.000000 0.000000 0.000000 0.000000 0.000000 0.000000 
-2.750446 17.469781 -0.598047 175.415205 83.304715 -153.960623 4.621781 -3.740178 9.973849 0.926576 -3.915634 -0.821059 -3.220532 -3.809139 0.337023 2.023507 -15.452599 -6.994066 -1.938078 -0.134051 -0.208387 0.000000 0.000000 0.000000 9.561597 11.124974 -0.686552 -61.379330 -2.085695 14.620100 -177.926305 -57.875961 179.993956 0.827816 0.861243 0.003867 -0.058203 0.477840 -0.000000 0.000000 0.000000 0.000000 0.000000 0.000000 0.000000 -1.114512 -12.211079 -0.372385 72.554143 -37.595452 14.324577 -179.958711 86.162970 179.952266 -17.052307 5.055133 -0.806303 0.256971 -0.252216 -0.000000 0.000000 0.000000 0.000000 0.000000 0.000000 0.000000 
-2.548890 17.459120 -0.586974 173.804921 82.990006 -155.611909 4.677159 -3.822338 10.092647 0.938288 -4.000071 -0.803412 -3.243794 -3.886466 0.329861 2.108806 -15.508050 -7.140207 -1.925011 -0.130937 -0.250230 0.000000 0.000000 0.000000 9.706877 11.085355 -0.649056 -61.544682 -0.613450 15.171748 -177.984384 -57.585081 179.996359 0.554610 0.770348 0.002240 -0.039397 0.474547 -0.000000 0.000000 0.000000 0.000000 0.000000 0.000000 0.000000 -1.099655 -12.167406 -0.313319 73.408191 -37.412919 13.219888 -179.961880 85.977599 179.951906 -16.965601 5.332841 -0.845502 0.256719 -0.260284 -0.000000 0.000000 0.000000 0.000000 0.000000 0.000000 0.000000 
-2.348669 17.434742 -0.575312 172.164797 82.673191 -157.307597 4.701850 -3.898099 10.213537 0.940434 -4.075828 -0.784231 -3.276065 -3.954600 0.321158 2.205985 -15.532214 -7.277593 -1.913458 -0.128038 -0.289477 0.000000 0.000000 0.000000 9.836276 11.048901 -0.610126 -61.710427 0.835568 15.748133 -178.048280 -57.376664 179.998630 0.284716 0.708249 0.001210 -0.020684 0.469849 -0.000000 0.000000 0.000000 0.000000 0.000000 0.000000 0.000000 -1.060732 -12.090150 -0.252870 74.280081 -37.166608 12.090627 -179.965641 85.833021 179.950692 -16.912294 5.512360 -0.871002 0.257101 -0.266988 -0.000000 0.000000 0.000000 0.000000 0.000000 0.000000 0.000000 
